# xmcd CD database file
#
# Track frame offsets:
#	150
#	14861
#	28371
#	41354
#	59134
#	71007
#	86451
#	99210
#	113650
#	127151
#	138803
#	152267
#	169222
#	183424
#
# Disc length: 2606 seconds
#
# Revision: 0
# Processed by: cddbd v1.5PL3 Copyright (c) Steve Scherf et al.
# Submitted via: CDex 1.51
#
DISCID=be0a2c0e
DTITLE=Larz-Kristerz - Stuffparty 1
DYEAR=1900
DGENRE=Dansband
TTITLE0=Där Näckrosen Blommar
TTITLE1=Ingen Ring
TTITLE2=Det Gör Detsamma
TTITLE3=Monica
TTITLE4=Robot Romeo
TTITLE5=Så Fort Som Nå'n Säger Ditt Namn
TTITLE6=Hon Är Sexton År Idag
TTITLE7=Det Är Nog Bäst Det Som Sker
TTITLE8=Hemma Hos Mig Igen
TTITLE9=Kalenderflickan
TTITLE10=Där Bara Månen Ser
TTITLE11=Allt Är Förbi
TTITLE12=Lycka Till Med Nästa Kille
TTITLE13=Raka Rör Och Ös Till Bäng
EXTD=
EXTT0=
EXTT1=
EXTT2=
EXTT3=
EXTT4=
EXTT5=
EXTT6=
EXTT7=
EXTT8=
EXTT9=
EXTT10=
EXTT11=
EXTT12=
EXTT13=
PLAYORDER=
